<svg xmlns="http://www.w3.org/2000/svg">
    <symbol viewBox="0 0 329.269 329" id="close" xmlns="http://www.w3.org/2000/svg">
        <path d="M194.8 164.77L323.013 36.555c8.343-8.34 8.343-21.825 0-30.164-8.34-8.34-21.825-8.34-30.164 0L164.633 134.605 36.422 6.391c-8.344-8.34-21.824-8.34-30.164 0-8.344 8.34-8.344 21.824 0 30.164l128.21 128.215L6.259 292.984c-8.344 8.34-8.344 21.825 0 30.164a21.266 21.266 0 0015.082 6.25c5.46 0 10.922-2.09 15.082-6.25l128.21-128.214 128.216 128.214a21.273 21.273 0 0015.082 6.25c5.46 0 10.922-2.09 15.082-6.25 8.343-8.34 8.343-21.824 0-30.164zm0 0"/>
    </symbol>
    <symbol viewBox="0 0 402.996 402.996" id="full-screen-selector" xmlns="http://www.w3.org/2000/svg">
        <path d="M392.996 1.985H258.33c-5.523 0-10 4.477-10 10V31.01c0 5.523 4.477 10 10 10h78.046L224.955 152.431c-3.905 3.905-3.905 10.237 0 14.142l13.453 13.453a9.967 9.967 0 007.07 2.929c2.56 0 5.119-.977 7.071-2.929L363.972 68.604v78.047c0 5.523 4.478 10 10 10h19.024c5.523 0 10-4.477 10-10V11.985c0-5.523-4.476-10-10-10zM66.62 41.01h78.046c5.523 0 10-4.477 10-10V11.985c0-5.523-4.477-10-10-10H10c-5.523 0-10 4.477-10 10v134.666c0 5.523 4.477 10 10 10h19.024c5.523 0 10-4.477 10-10V68.604l111.422 111.421c1.952 1.953 4.512 2.929 7.071 2.929s5.119-.977 7.071-2.929l13.453-13.453c3.905-3.905 3.905-10.237 0-14.142L66.62 41.01zm326.376 205.334h-19.024c-5.522 0-10 4.478-10 10v78.047L252.55 222.97c-3.903-3.905-10.237-3.905-14.142 0l-13.453 13.453c-3.905 3.904-3.905 10.236 0 14.142l111.421 111.421H258.33c-5.523 0-10 4.477-10 10v19.023c0 5.523 4.477 10 10 10h134.666c5.523 0 10-4.477 10-10V256.344c0-5.523-4.476-10-10-10zM164.588 222.97c-3.905-3.905-10.238-3.905-14.142 0L39.024 334.392v-78.047c0-5.523-4.477-10-10-10H10c-5.523 0-10 4.477-10 10v134.666c0 5.523 4.477 10 10 10h134.666c5.523 0 10-4.477 10-10v-19.023c0-5.523-4.477-10-10-10H66.62l111.421-111.422c3.905-3.904 3.905-10.236 0-14.143l-13.453-13.453z"/>
    </symbol>
    <symbol viewBox="0 0 219.152 219.152" id="minimize" xmlns="http://www.w3.org/2000/svg">
        <path d="M211.652 0H7.501a7.5 7.5 0 00-7.5 7.5v204.152a7.5 7.5 0 007.5 7.5h204.151a7.5 7.5 0 007.5-7.5V7.5a7.5 7.5 0 00-7.5-7.5zm-7.5 204.152H15.001V15h189.151v189.152z"/>
        <path d="M58.539 117.076h102.075c4.142 0 7.5-3.357 7.5-7.5s-3.358-7.5-7.5-7.5H58.539c-4.142 0-7.5 3.357-7.5 7.5s3.358 7.5 7.5 7.5z"/>
    </symbol>
</svg>
